<?xml version="1.0" standalone="no"?>
<!DOCTYPE svg PUBLIC "-//W3C//DTD SVG 20010904//EN"
 "http://www.w3.org/TR/2001/REC-SVG-20010904/DTD/svg10.dtd">
<svg version="1.0" xmlns="http://www.w3.org/2000/svg"
 width="512.000000pt" height="512.000000pt" viewBox="0 0 512.000000 512.000000"
 preserveAspectRatio="xMidYMid meet">

<g transform="translate(0.000000,512.000000) scale(0.100000,-0.100000)"
fill="#000000" stroke="none">
<path d="M2455 5106 c-144 -36 -268 -146 -316 -278 -15 -44 -19 -45 -44 -18
-41 45 -150 92 -246 105 -173 23 -371 -92 -452 -262 -30 -65 -32 -74 -32 -185
0 -109 -1 -117 -18 -112 -10 3 -53 6 -95 6 -127 0 -239 -49 -325 -141 -85 -91
-136 -239 -122 -350 13 -96 60 -205 105 -246 27 -25 26 -29 -17 -44 -194 -69
-320 -287 -285 -490 27 -161 140 -300 285 -352 43 -15 44 -19 17 -44 -45 -41
-92 -150 -105 -246 -8 -66 9 -161 44 -235 54 -115 169 -212 289 -244 45 -12
187 -15 213 -5 12 4 14 -14 14 -113 0 -116 1 -119 37 -193 127 -257 450 -334
676 -161 24 18 45 32 46 30 2 -2 10 -23 20 -47 39 -99 117 -182 220 -233 l63
-31 -45 -96 c-62 -134 -125 -327 -117 -363 12 -54 81 -76 121 -39 11 10 35 65
53 122 34 107 108 279 121 279 11 0 84 -165 113 -255 61 -185 97 -411 97 -601
l0 -114 -210 0 -211 0 2 152 1 153 -27 22 c-14 13 -32 23 -40 23 -29 0 -64
-23 -74 -49 -10 -27 -17 -178 -13 -319 2 -73 5 -86 27 -107 l24 -25 311 0 311
0 24 25 c23 22 25 33 27 122 8 394 -58 725 -197 1004 l-33 65 63 32 c104 51
182 134 221 233 10 24 18 45 20 47 1 2 22 -12 46 -30 226 -173 549 -96 675
160 37 75 38 78 38 194 0 109 1 117 18 112 10 -3 53 -6 95 -6 127 0 239 49
325 141 51 55 107 160 107 201 0 55 -52 90 -104 70 -18 -6 -34 -28 -54 -72
-33 -73 -88 -131 -152 -161 -65 -31 -188 -30 -248 1 -113 60 -167 147 -166
272 0 61 5 85 27 126 56 110 167 172 292 162 71 -6 124 -31 185 -87 57 -52 83
-60 118 -34 36 27 41 76 12 115 -12 16 -20 31 -18 32 1 1 19 9 38 16 242 93
356 379 244 614 -46 98 -148 191 -246 227 -44 15 -45 19 -18 44 27 24 64 93
84 152 69 212 -29 440 -233 541 -73 36 -77 37 -190 37 l-116 0 0 115 c0 108
-2 119 -32 182 -115 244 -400 334 -637 202 -24 -13 -51 -33 -61 -44 -25 -27
-29 -26 -44 18 -20 56 -77 137 -127 181 -106 93 -262 131 -399 97z m170 -151
c130 -22 228 -145 228 -286 0 -262 -318 -393 -501 -206 -113 115 -115 296 -4
410 20 21 51 46 67 55 34 18 132 42 155 37 8 -2 33 -6 55 -10z m-711 -215
c142 -54 217 -210 172 -362 -20 -68 -80 -139 -150 -176 -69 -36 -176 -37 -253
-3 -126 56 -196 203 -163 340 21 90 110 185 197 211 52 15 140 11 197 -10z
m1548 -19 c167 -101 196 -313 62 -460 -78 -87 -235 -114 -340 -59 -70 37 -130
108 -150 176 -44 150 29 306 169 362 81 32 188 24 259 -19z m-1062 -473 c44
-18 75 -22 160 -22 122 0 182 19 266 82 l51 39 32 -69 c80 -172 239 -266 434
-256 l84 4 -5 -90 c-3 -75 0 -102 18 -156 43 -129 119 -216 238 -271 l69 -32
-39 -51 c-63 -84 -82 -144 -82 -266 0 -122 19 -182 82 -266 l39 -51 -69 -32
c-119 -55 -195 -142 -238 -271 -18 -54 -21 -81 -18 -156 l5 -91 -91 5 c-75 3
-102 0 -156 -18 -129 -43 -216 -119 -271 -238 l-32 -69 -51 39 c-84 63 -144
82 -266 82 -122 0 -182 -19 -266 -82 l-51 -39 -32 69 c-80 172 -239 266 -434
256 l-84 -4 5 90 c3 75 0 102 -18 156 -43 129 -119 216 -238 271 l-69 32 39
51 c63 84 82 144 82 266 0 122 -19 182 -82 266 l-39 51 69 32 c119 55 195 142
238 271 18 54 21 81 18 156 l-5 90 84 -4 c195 -10 354 84 434 256 l32 69 51
-39 c28 -21 76 -48 106 -60z m-1020 -68 c110 -56 164 -145 164 -270 0 -62 -4
-84 -26 -126 -37 -70 -108 -130 -176 -150 -204 -60 -393 90 -380 301 8 124 79
216 198 259 59 22 163 15 220 -14z m2611 1 c101 -48 160 -135 167 -246 10
-165 -104 -300 -263 -313 -125 -10 -236 52 -292 162 -52 100 -31 249 45 329
33 35 103 77 145 88 52 13 148 3 198 -20z m-2816 -756 c185 -84 227 -325 83
-472 -56 -57 -126 -86 -208 -86 -185 0 -321 163 -288 345 12 66 31 103 77 151
88 93 216 117 336 62z m3015 3 c88 -37 150 -118 168 -216 33 -182 -103 -345
-288 -345 -214 0 -357 221 -269 413 70 151 236 214 389 148z m-2841 -745 c66
-21 134 -81 168 -147 55 -106 29 -262 -58 -340 -148 -134 -359 -105 -461 64
-31 51 -33 60 -33 145 0 102 15 142 79 207 81 83 190 108 305 71z m587 -566
c70 -35 130 -106 150 -175 60 -206 -90 -393 -303 -380 -308 20 -373 443 -87
564 77 32 165 29 240 -9z m1480 12 c233 -87 260 -400 46 -530 -107 -65 -258
-47 -350 41 -56 54 -84 111 -90 185 -6 85 17 160 69 219 86 98 206 129 325 85z
m-731 -213 c184 -84 226 -327 83 -473 -112 -115 -298 -115 -415 -1 -114 111
-116 296 -5 411 91 94 217 118 337 63z"/>
</g>
</svg>
